<?xml version="1.0" standalone="no"?>
<!DOCTYPE svg PUBLIC "-//W3C//DTD SVG 20010904//EN"
 "http://www.w3.org/TR/2001/REC-SVG-20010904/DTD/svg10.dtd">
<svg version="1.0" xmlns="http://www.w3.org/2000/svg"
 width="1104.000000pt" height="790.000000pt" viewBox="0 0 1104.000000 790.000000"
 preserveAspectRatio="xMidYMid meet">

<g transform="translate(0.000000,790.000000) scale(0.100000,-0.100000)"
fill="#000000" stroke="none">
<path d="M3275 6999 c-437 -32 -837 -139 -1209 -326 -469 -235 -746 -581 -746
-932 0 -146 41 -293 106 -378 35 -45 49 -41 24 7 -38 74 -53 165 -47 290 6
130 25 198 88 321 196 378 804 681 1544 770 153 18 486 15 635 -6 542 -76 832
-332 780 -687 -68 -465 -531 -775 -1358 -908 -149 -24 -446 -52 -500 -48 l-39
3 177 338 c97 186 194 359 216 384 95 112 106 134 101 188 -10 105 -133 334
-200 376 -48 29 -81 24 -121 -16 -37 -37 -76 -139 -76 -199 0 -23 -65 -158
-211 -442 -300 -581 -587 -1132 -764 -1469 -85 -159 -161 -317 -171 -350 -10
-33 -18 -89 -18 -125 0 -79 21 -123 92 -197 119 -123 229 -124 304 -3 22 36
30 65 38 141 6 62 21 127 40 180 17 46 135 291 263 544 l232 460 65 -2 c504
-13 738 -2 1070 52 538 89 858 219 1097 448 131 126 212 256 258 414 64 220
29 472 -90 659 -133 207 -401 370 -750 454 -232 57 -553 79 -830 59z"/>
<path d="M8799 6596 c-104 -71 -269 -365 -832 -1481 -95 -187 -167 -317 -204
-367 -80 -105 -410 -456 -568 -601 -212 -197 -325 -279 -422 -308 -93 -27
-118 41 -67 183 44 121 97 217 238 428 82 122 138 215 142 237 10 54 -18 128
-83 215 -86 115 -100 119 -335 92 l-57 -7 8 29 c5 16 16 46 25 68 9 21 13 42
10 47 -23 38 -191 -36 -296 -130 -146 -130 -228 -245 -228 -321 0 -32 -13 -51
-106 -156 -453 -507 -731 -740 -830 -695 -21 9 -24 17 -24 60 0 99 105 345
257 601 149 253 193 345 193 411 0 79 -70 129 -181 129 -90 0 -123 -23 -271
-189 l-57 -63 -6 28 c-27 121 -82 200 -160 230 -66 25 -194 15 -305 -24 -191
-66 -311 -134 -553 -315 -361 -269 -570 -544 -608 -801 -28 -186 64 -369 204
-407 63 -17 199 -5 286 25 217 76 532 297 770 540 62 65 110 109 106 99 -80
-179 -102 -372 -58 -507 20 -63 92 -137 149 -154 56 -16 160 -15 220 3 207 63
432 255 910 776 l253 276 58 12 c32 6 103 31 158 55 55 24 101 42 102 41 2 -1
-36 -66 -83 -144 -169 -281 -250 -470 -275 -640 -35 -242 68 -390 273 -391
137 0 283 69 487 229 121 96 352 325 489 484 50 59 92 105 92 102 0 -3 -22
-49 -49 -103 -68 -135 -99 -213 -121 -307 -34 -137 -24 -227 32 -290 35 -41
78 -46 143 -16 88 40 167 123 369 386 233 302 519 591 656 660 106 54 177 53
202 -1 10 -22 9 -32 -12 -71 -31 -59 -98 -117 -255 -220 -71 -47 -148 -97
-169 -112 -63 -42 -96 -95 -96 -154 0 -62 55 -182 144 -316 75 -111 137 -176
220 -225 71 -43 131 -53 211 -37 270 56 703 439 915 808 77 134 48 120 -135
-64 -167 -167 -270 -253 -391 -326 -162 -97 -301 -130 -381 -89 -60 31 -126
111 -177 216 -25 51 -46 96 -46 99 0 3 38 24 84 47 155 77 411 292 473 397 48
81 66 209 43 294 -14 50 -83 125 -143 156 -44 22 -60 25 -122 21 -232 -16
-617 -306 -1108 -838 l-106 -115 14 61 c40 173 140 353 429 771 99 145 225
327 279 405 324 469 505 884 484 1110 -13 148 -111 220 -208 154z m-3809
-1994 c0 -21 -86 -129 -179 -226 -182 -187 -415 -360 -630 -469 -186 -95 -264
-109 -305 -54 -75 101 64 335 301 509 112 83 287 163 445 204 121 31 368 56
368 36z"/>
</g>
</svg>
